<?xml version="1.0" standalone="no"?>
<!DOCTYPE svg PUBLIC "-//W3C//DTD SVG 20010904//EN"
 "http://www.w3.org/TR/2001/REC-SVG-20010904/DTD/svg10.dtd">
<svg version="1.0" xmlns="http://www.w3.org/2000/svg"
 width="150.000000pt" height="150.000000pt" viewBox="0 0 300.000000 300.000000"
 preserveAspectRatio="xMidYMid meet">

<g transform="translate(0.000000,300.000000) scale(0.100000,-0.100000)"
fill="#87807f" stroke="none">
<path d="M2489 2615 c-68 -83 -98 -105 -185 -137 -50 -18 -92 -22 -279 -28
-163 -6 -234 -12 -275 -25 -37 -12 -94 -18 -175 -19 -147 -2 -166 -11 -295
-131 -50 -47 -94 -85 -98 -86 -4 0 -26 -2 -50 -4 -23 -2 -48 -8 -55 -13 -7 -6
-38 -15 -71 -21 -90 -17 -136 -47 -169 -111 -26 -50 -28 -63 -25 -135 3 -51
12 -96 25 -125 l20 -45 -24 -44 c-16 -31 -23 -61 -23 -102 l0 -57 -76 -7
c-123 -12 -169 -3 -221 45 -59 55 -115 80 -183 80 -150 0 -240 -119 -211 -281
27 -153 132 -297 264 -363 67 -33 187 -70 302 -94 28 -6 88 -22 134 -36 66
-21 104 -26 185 -26 152 0 263 33 383 115 70 48 145 70 207 62 24 -4 99 -28
167 -56 167 -66 238 -84 334 -84 134 0 248 59 315 163 18 28 52 103 76 167 24
64 49 120 56 125 7 4 42 25 78 45 84 47 176 140 228 230 57 98 60 107 34 98
-27 -8 -27 -9 -1 68 25 74 39 250 20 261 -23 14 -86 -31 -134 -95 -81 -109
-111 -143 -115 -131 -6 20 18 80 54 134 19 28 32 53 29 56 -3 3 -30 6 -60 6
-30 1 -55 3 -55 6 0 3 9 30 21 60 18 48 21 71 17 175 -3 106 -7 126 -30 170
-16 31 -28 74 -32 111 -6 70 -27 154 -37 154 -4 0 -36 -34 -70 -75z m-519
-710 c0 -38 -70 -107 -152 -150 -56 -30 -86 -39 -138 -43 -80 -5 -98 8 -54 43
54 44 193 127 251 151 76 31 93 31 93 -1z m-828 -46 c17 -22 18 -29 7 -46 -19
-31 -5 -55 31 -51 32 3 43 -15 11 -20 -25 -4 -78 23 -89 46 -14 26 -23 87 -15
96 12 12 35 2 55 -25z m38 -65 c0 -8 -4 -12 -10 -9 -5 3 -10 10 -10 16 0 5 5
9 10 9 6 0 10 -7 10 -16z m1027 -108 c16 -13 42 -48 58 -77 37 -69 39 -145 6
-244 -53 -158 -123 -255 -215 -302 -59 -30 -94 -27 -218 19 -53 19 -121 34
-188 42 -98 11 -103 13 -80 26 44 25 248 25 358 1 116 -26 155 -19 216 42 76
77 118 245 82 331 -20 47 -20 47 -1 40 27 -11 16 5 -15 21 -42 22 -139 19
-201 -5 -59 -24 -163 -89 -229 -145 -25 -21 -124 -112 -220 -203 -258 -244
-359 -301 -531 -302 -165 0 -222 29 -427 219 -57 53 -128 113 -158 134 -70 46
-106 50 -49 4 92 -74 196 -171 207 -191 11 -20 10 -21 -9 -3 -19 17 -21 17
-27 1 -4 -10 1 -26 11 -38 17 -20 17 -20 0 -7 -22 17 -34 7 -17 -14 17 -20 12
-19 -67 10 -174 66 -290 236 -254 372 15 54 44 89 87 103 78 26 154 -20 220
-134 53 -91 133 -193 173 -221 53 -36 129 -67 154 -62 21 3 21 4 2 11 -59 21
-115 56 -160 101 -61 60 -141 184 -122 190 6 2 68 11 136 20 68 9 156 26 195
37 70 19 99 33 246 118 96 56 177 89 215 90 36 0 83 -24 166 -85 60 -44 93
-59 70 -31 -9 11 0 14 52 18 45 4 96 19 176 53 218 92 304 107 358 61z m-54
-117 c32 -15 57 -59 57 -103 0 -35 -1 -36 -36 -36 -23 0 -55 -11 -84 -29 l-47
-29 -21 21 -21 21 -41 -44 c-33 -36 -43 -42 -50 -30 -5 8 -15 24 -23 34 -14
19 -15 19 -42 -10 -43 -46 -53 -74 -12 -35 l35 33 16 -30 c25 -48 35 -48 77
-1 l39 44 19 -23 19 -22 48 25 c61 33 104 34 104 3 0 -39 -53 -131 -89 -155
-40 -27 -105 -30 -190 -9 -118 30 -205 30 -321 0 -17 -4 10 27 89 102 233 223
388 312 474 273z m-1558 -499 c10 -11 16 -20 13 -20 -3 0 -13 9 -23 20 -10 11
-16 20 -13 20 3 0 13 -9 23 -20z"/>
<path d="M1726 1809 c-33 -26 -32 -62 2 -67 46 -7 87 66 46 82 -21 8 -18 9
-48 -15z m28 -24 c-4 -8 -10 -15 -15 -15 -4 0 -6 7 -3 15 4 8 10 15 15 15 4 0
6 -7 3 -15z"/>
<path d="M1396 1609 c-13 -8 -15 -14 -7 -19 9 -5 8 -10 -4 -20 -12 -10 -15
-10 -15 0 0 9 -7 7 -20 -5 -11 -10 -20 -29 -20 -42 0 -32 38 -31 82 3 24 19
23 17 -6 -10 -42 -39 -34 -51 9 -13 28 24 42 82 24 104 -14 16 -18 16 -43 2z"/>
</g>
</svg>
